<?xml version="1.0" encoding="UTF-8"?>
<svg width="203px" height="143px" viewBox="0 0 203 143" version="1.1" xmlns="http://www.w3.org/2000/svg">
	<g id="logo" stroke="none" stroke-width="1" fill="none">
		<path d="M131.3955,64.2205 C135.0405,66.2325 138.2925,67.6755 141.0555,68.4675 C142.4535,68.8635 145.1235,67.6755 147.1975,66.0125 C151.3445,62.6775 155.5015,59.1525 159.6245,55.4845 C161.6795,53.6525 162.6945,51.7965 161.6795,51.1615 C159.6415,49.9215 156.9915,48.0095 153.8555,45.5345 C152.2895,44.2815 148.9075,44.8865 146.5125,47.0115 C141.7445,51.2185 136.9585,55.2185 132.2365,58.9265 C129.8655,60.7955 129.5625,63.2135 131.3955,64.2205" id="Fill-1" fill="#C3151C"></path>
		<path d="M43.6104,55.5545 C47.7324,59.2255 51.8904,62.7435 56.0414,66.0755 C58.1094,67.7395 60.7994,68.9195 62.1954,68.5235 C64.9574,67.7395 68.2074,66.2795 71.8604,64.2575 C73.6894,63.2525 73.3814,60.8385 70.9944,58.9595 C66.2634,55.2515 61.4734,51.2585 56.7104,47.0575 C54.3154,44.9495 50.9344,44.3345 49.3794,45.5945 C46.2384,48.0755 43.5824,49.9915 41.5474,51.2345 C40.5314,51.8605 41.5514,53.7195 43.6104,55.5545" id="Fill-3" fill="#C3151C"></path>
		<path d="M108.6025,48.3846 C113.3145,52.0626 117.8075,55.3516 121.9885,58.1586 C124.0925,59.5516 127.6345,59.1156 130.0055,57.2406 C134.7635,53.4956 139.5895,49.4526 144.4015,45.2056 C146.7985,43.0806 147.3175,40.0976 145.4025,38.4486 C141.5785,35.1926 137.3615,31.4676 132.8285,27.3546 C130.5675,25.2966 126.5235,25.4926 123.9495,27.8636 C118.8145,32.5656 113.7065,37.0516 108.7425,41.2256 C106.2505,43.3266 106.2485,46.5556 108.6025,48.3846" id="Fill-5" fill="#D61920"></path>
		<path d="M58.8428,45.2557 C63.6468,49.4987 68.4748,53.5327 73.2238,57.2737 C75.6138,59.1397 79.1558,59.5817 81.2528,58.1847 C85.4218,55.3747 89.9178,52.0867 94.6138,48.3917 C96.9988,46.5527 96.9828,43.3197 94.4808,41.2187 C89.5048,37.0617 84.4098,32.5757 79.2648,27.8837 C76.6908,25.5287 72.6218,25.3297 70.3598,27.3977 C65.8418,31.5077 61.6228,35.2427 57.8058,38.4987 C55.9148,40.1307 56.4318,43.1377 58.8428,45.2557" id="Fill-7" fill="#D61920"></path>
		<path d="M81.8584,25.4725 C87.0214,30.2045 92.1474,34.7235 97.1204,38.9245 C99.6094,41.0125 103.6004,41.0125 106.0914,38.9135 C111.0734,34.7075 116.1914,30.1915 121.3414,25.4625 C123.9254,23.0915 124.0994,19.3005 121.6384,16.9865 C116.7364,12.4005 111.6124,7.5285 106.3814,2.4765 C103.7564,-0.0535 99.4104,-0.0605 96.7934,2.4765 C91.5734,7.5285 86.4614,12.4135 81.5524,17.0055 C79.0964,19.3205 79.2744,23.1015 81.8584,25.4725" id="Fill-9" fill="#EC1D24"></path>
		<path d="M35.3613,109.1209 L42.7853,109.1209 C39.0323,116.7929 32.4553,120.6339 23.0493,120.6339 C16.6553,120.6339 11.2803,118.3389 6.9293,113.7669 C2.5753,109.1909 0.4003,103.6739 0.4003,97.2389 C0.4003,91.0139 2.6353,85.6399 7.1163,81.1239 C11.5903,76.6109 16.9433,74.3499 23.1703,74.3499 C27.5863,74.3499 31.4873,75.3379 34.8673,77.3199 C38.4143,79.3849 41.0543,82.3709 42.7853,86.2919 L35.7313,86.2919 C32.7253,82.2509 28.4963,80.2359 23.0493,80.2359 C18.5883,80.2359 14.7383,81.9419 11.4793,85.3609 C8.2183,88.7859 6.5883,92.7499 6.5883,97.2389 C6.5883,101.9049 8.1593,105.9679 11.2903,109.4299 C14.5063,113.0219 18.4273,114.8209 23.0493,114.8209 C28.4963,114.8209 32.5973,112.9219 35.3613,109.1209" id="Fill-11" fill="#58585B"></path>
		<polygon id="Fill-13" fill="#58585B" points="59.3555 119.7625 53.8535 119.7625 53.8535 93.0985 45.3095 93.0985 45.3095 88.0245 67.8955 88.0245 67.8955 93.0985 59.3555 93.0985"></polygon>
		<polygon id="Fill-15" fill="#58585B" points="76.8047 119.7625 71.6747 119.7625 71.6747 88.0245 77.0517 88.0245 77.0517 111.5385 94.3187 88.0245 99.4537 88.0245 99.4537 119.7625 94.0067 119.7625 94.0067 96.2345"></polygon>
		<polygon id="Fill-17" fill="#58585B" points="116.5439 95.9022 108.3629 119.7622 102.5489 119.7622 114.3049 88.0242 118.8849 88.0242 130.6369 119.7622 124.8539 119.7622"></polygon>
		<path d="M139.2383,105.6024 L139.2383,114.8774 L145.7993,114.8774 C150.1273,114.8774 152.2943,113.3074 152.2943,110.1754 C152.2943,107.1154 150.1273,105.6024 145.7993,105.6024 L139.2383,105.6024 Z M139.2383,88.0244 L139.2383,100.7104 L146.2903,100.7104 C153.9653,100.7104 157.8023,103.8704 157.8023,110.1754 C157.8023,113.3974 156.6433,115.8484 154.3363,117.5374 C152.2733,119.0274 149.5703,119.7624 146.2263,119.7624 L133.8553,119.7624 L133.8553,88.0244 L139.2383,88.0244 Z" id="Fill-19" fill="#58585B"></path>
		<polygon id="Fill-21" fill="#58585B" points="183.7891 81.7523 171.0231 118.9513 164.6441 118.9513 180.7991 74.4103 186.6761 74.4103 202.8261 118.9513 196.5511 118.9513"></polygon>
		<path d="M5.9238,138.491 L4.0568,133.022 L4.0278,132.755 L3.9998,133.022 L2.1398,138.491 L5.9238,138.491 Z M6.7938,139.472 L1.2828,139.472 L1.2828,141.345 L0.4008,141.345 L0.4008,138.491 L1.1058,138.491 L3.6248,131.387 L4.4398,131.387 L6.9648,138.491 L7.6918,138.491 L7.6918,141.345 L6.7938,141.345 L6.7938,139.472 Z" id="Fill-23" fill="#58585B"></path>
		<polygon id="Fill-25" fill="#58585B" points="9.5635 138.0804 13.7685 131.3714 14.7685 131.3714 14.7685 139.4724 13.7685 139.4724 13.7685 132.7544 9.5635 139.4724 8.5855 139.4724 8.5855 131.3714 9.5635 131.3714"></polygon>
		<path d="M19.4004,135.1375 C19.8014,135.2435 20.1104,135.4055 20.3254,135.6225 C20.7074,136.0135 20.8984,136.5225 20.8984,137.1525 C20.8984,137.4405 20.8504,137.7335 20.7494,138.0305 C20.6494,138.3265 20.5114,138.5795 20.3384,138.7885 C20.2054,138.9455 20.0424,139.0945 19.8444,139.2365 C19.6314,139.3795 19.4284,139.4775 19.2364,139.5325 C19.0434,139.5835 18.7894,139.6105 18.4694,139.6105 C17.9854,139.6105 17.5594,139.5125 17.1924,139.3195 C16.8254,139.1265 16.5374,138.8485 16.3334,138.4845 C16.1274,138.1165 16.0164,137.6895 16.0044,137.1975 L16.9844,137.1975 C17.0144,137.4765 17.0564,137.6845 17.1074,137.8175 C17.1574,137.9525 17.2444,138.0855 17.3674,138.2185 C17.6494,138.5215 18.0084,138.6745 18.4414,138.6745 C18.8704,138.6745 19.2204,138.5345 19.4924,138.2555 C19.7624,137.9775 19.8994,137.6185 19.8994,137.1805 C19.8994,136.9035 19.8314,136.6475 19.6954,136.4145 C19.5564,136.1795 19.3724,135.9985 19.1394,135.8675 C18.9074,135.7345 18.6454,135.6675 18.3594,135.6675 C18.1814,135.6675 18.0324,135.6785 17.9164,135.6995 L17.9164,134.7335 C18.1014,134.7535 18.2184,134.7635 18.2634,134.7635 C18.6164,134.7635 18.9134,134.6415 19.1564,134.3945 C19.4004,134.1485 19.5234,133.8455 19.5234,133.4845 C19.5234,133.0955 19.4144,132.7815 19.1944,132.5455 C18.9744,132.3105 18.6834,132.1925 18.3204,132.1925 C17.9904,132.1925 17.7244,132.2995 17.5234,132.5125 C17.3224,132.7205 17.2064,133.0195 17.1694,133.4095 L16.1894,133.4095 C16.2294,132.7205 16.4444,132.1845 16.8324,131.8055 C17.2204,131.4175 17.7434,131.2245 18.4014,131.2245 C18.7944,131.2245 19.1494,131.3215 19.4714,131.5075 C19.7934,131.6955 20.0474,131.9545 20.2284,132.2875 C20.4114,132.6195 20.5034,132.9895 20.5034,133.3945 C20.5034,133.7595 20.4394,134.0765 20.3104,134.3455 C20.2334,134.5025 20.1294,134.6385 19.9964,134.7535 C19.8634,134.8665 19.6654,134.9945 19.4004,135.1375" id="Fill-27" fill="#58585B"></path>
		<path d="M25.8652,132.2396 C25.3162,132.2396 24.8142,132.3806 24.3582,132.6686 C23.9012,132.9546 23.5442,133.3436 23.2852,133.8356 C23.0232,134.3276 22.8932,134.8666 22.8932,135.4486 C22.8932,136.0156 23.0272,136.5426 23.2912,137.0266 C23.5552,137.5106 23.9132,137.8956 24.3622,138.1836 C24.8112,138.4696 25.3002,138.6146 25.8232,138.6146 C26.3262,138.6146 26.7972,138.4696 27.2302,138.1836 C27.6662,137.8956 28.0132,137.5106 28.2672,137.0266 C28.5242,136.5426 28.6502,136.0156 28.6502,135.4486 C28.6502,134.8796 28.5272,134.3476 28.2742,133.8526 C28.0252,133.3536 27.6842,132.9606 27.2552,132.6716 C26.8242,132.3826 26.3622,132.2396 25.8652,132.2396 Z M29.6092,131.3716 L29.6092,139.4636 L28.6502,139.4636 L28.6502,137.9426 C28.4732,138.2836 28.2722,138.5696 28.0492,138.8036 C27.4512,139.3706 26.7152,139.6556 25.8372,139.6556 C25.2532,139.6556 24.6612,139.4936 24.0572,139.1716 C23.4562,138.8486 22.9782,138.4396 22.6282,137.9426 C22.4082,137.6236 22.2332,137.2376 22.1022,136.7816 C21.9722,136.3296 21.9082,135.8736 21.9082,135.4186 C21.9082,134.6566 22.0832,133.9516 22.4312,133.3036 C22.7812,132.6556 23.2582,132.1426 23.8602,131.7666 C24.4572,131.3866 25.1072,131.1966 25.8122,131.1966 C26.2482,131.1966 26.6632,131.2716 27.0532,131.4246 C27.4432,131.5756 27.7792,131.7976 28.0612,132.0866 C28.2812,132.2996 28.4772,132.5746 28.6502,132.9156 L28.6502,131.3636 L29.6092,131.3716 Z" id="Fill-29" fill="#58585B"></path>
		<path d="M32.3262,128.5496 L33.1702,128.5496 C33.3922,129.0106 33.7902,129.2416 34.3602,129.2416 C34.9212,129.2416 35.3142,129.0106 35.5372,128.5496 L36.3722,128.5496 C36.2802,128.8756 36.1692,129.1246 36.0362,129.2996 C35.6432,129.8216 35.0852,130.0866 34.3602,130.0866 C33.9682,130.0866 33.6052,130.0016 33.2792,129.8336 C33.0402,129.7056 32.8352,129.5276 32.6622,129.2996 C32.5292,129.1246 32.4182,128.8756 32.3262,128.5496 Z M32.1552,138.0806 L36.3582,131.3716 L37.3582,131.3716 L37.3582,139.4716 L36.3582,139.4716 L36.3582,132.7546 L32.1552,139.4716 L31.1762,139.4716 L31.1762,131.3716 L32.1552,131.3716 L32.1552,138.0806 Z" id="Fill-31" fill="#58585B"></path>
		<polygon id="Fill-33" fill="#58585B" points="39.8936 134.825 44.0986 134.825 44.0986 131.371 45.0976 131.371 45.0976 139.472 44.0986 139.472 44.0986 135.806 39.8936 135.806 39.8936 139.472 38.9156 139.472 38.9156 131.371 39.8936 131.371"></polygon>
		<path d="M59.9658,137.098 L61.0618,137.098 C60.8838,137.475 60.7328,137.756 60.6138,137.948 C60.4928,138.137 60.3418,138.323 60.1638,138.505 C59.4288,139.273 58.5428,139.655 57.4998,139.655 C56.7708,139.655 56.1018,139.469 55.4948,139.1 C54.8878,138.724 54.4088,138.215 54.0568,137.572 C53.7078,136.922 53.5308,136.208 53.5308,135.433 C53.5308,134.663 53.7078,133.952 54.0568,133.304 C54.4088,132.655 54.8878,132.143 55.4948,131.767 C56.1018,131.387 56.7618,131.197 57.4758,131.197 C58.5878,131.197 59.5338,131.638 60.3158,132.52 C60.5898,132.835 60.8428,133.27 61.0748,133.829 L59.9658,133.829 C59.7518,133.483 59.5368,133.21 59.3218,133.008 C58.7798,132.494 58.1588,132.24 57.4598,132.24 C56.9218,132.24 56.4258,132.381 55.9738,132.663 C55.5238,132.944 55.1658,133.327 54.9058,133.812 C54.6478,134.3 54.5178,134.83 54.5178,135.402 C54.5178,136 54.6458,136.546 54.8998,137.038 C55.1538,137.525 55.5098,137.909 55.9618,138.195 C56.4078,138.473 56.9028,138.614 57.4468,138.614 C57.9348,138.614 58.3878,138.498 58.8018,138.27 C59.0348,138.139 59.2318,137.993 59.3928,137.836 C59.5508,137.675 59.7408,137.429 59.9658,137.098" id="Fill-35" fill="#58585B"></path>
		<polygon id="Fill-37" fill="#58585B" points="63.3867 139.472 63.3867 132.368 61.6687 132.368 61.6687 131.387 66.0827 131.387 66.0827 132.368 64.3717 132.368 64.3717 139.472"></polygon>
		<path d="M70.7568,138.6141 C71.1868,138.5931 71.5778,138.5011 71.9368,138.3421 C72.2898,138.1831 72.6018,137.9611 72.8648,137.6781 C73.1298,137.3941 73.3338,137.0631 73.4738,136.6851 C73.6168,136.3061 73.6868,135.8941 73.6868,135.4481 C73.6868,134.8761 73.5588,134.3411 73.2998,133.8441 C73.0428,133.3461 72.6928,132.9581 72.2498,132.6721 C71.8028,132.3821 71.3198,132.2391 70.7988,132.2391 C70.2548,132.2391 69.7608,132.3771 69.3188,132.6561 C68.8768,132.9341 68.5278,133.3191 68.2768,133.8051 C68.0228,134.2911 67.8958,134.8351 67.8958,135.4331 C67.8958,136.0151 68.0208,136.5511 68.2738,137.0341 C68.5228,137.5181 68.8628,137.9031 69.2918,138.1871 C69.7198,138.4711 70.1918,138.6141 70.7018,138.6141 L70.7568,138.6141 Z M66.9858,131.3631 L67.9088,131.3631 L67.9088,132.7701 C68.1178,132.4421 68.3028,132.2131 68.4578,132.0861 C69.1358,131.4931 69.9258,131.1971 70.8268,131.1971 C71.3828,131.1971 71.9188,131.3311 72.4348,131.5991 C72.9498,131.8791 73.4038,132.2671 73.7968,132.7701 C74.3748,133.4911 74.6658,134.3831 74.6658,135.4481 C74.6658,136.2181 74.4908,136.9251 74.1428,137.5671 C73.7928,138.2081 73.3178,138.7171 72.7158,139.0931 C72.1168,139.4671 71.4638,139.6551 70.7568,139.6551 C69.8388,139.6551 69.0828,139.3471 68.4848,138.7341 C68.3098,138.5681 68.1368,138.3081 67.9638,137.9591 L67.9638,142.3091 L66.9858,142.3091 L66.9858,131.3631 Z" id="Fill-39" fill="#58585B"></path>
		<path d="M79.4902,132.2396 C78.9562,132.2576 78.4732,132.4136 78.0452,132.7036 C77.6112,132.9866 77.2732,133.3716 77.0292,133.8586 C76.7842,134.3456 76.6632,134.8796 76.6632,135.4616 C76.6632,136.0366 76.7892,136.5646 77.0392,137.0466 C77.2952,137.5316 77.6402,137.9156 78.0762,138.1956 C78.5112,138.4726 78.9872,138.6146 79.5052,138.6146 C80.0202,138.6146 80.4922,138.4716 80.9222,138.1866 C81.3452,137.8956 81.6792,137.5036 81.9242,137.0066 C82.1672,136.5106 82.2902,135.9606 82.2902,135.3566 C82.2902,134.8096 82.1652,134.2946 81.9172,133.8126 C81.6682,133.3316 81.3322,132.9476 80.9082,132.6636 C80.4822,132.3806 80.0282,132.2396 79.5452,132.2396 L79.4902,132.2396 Z M79.4222,131.1966 C80.1152,131.1966 80.7572,131.3866 81.3482,131.7666 C81.9402,132.1466 82.4082,132.6596 82.7562,133.3066 C83.1012,133.9516 83.2772,134.6526 83.2772,135.4016 C83.2772,136.1636 83.1042,136.8716 82.7632,137.5256 C82.4202,138.1806 81.9612,138.6976 81.3792,139.0816 C80.8002,139.4636 80.1702,139.6556 79.4902,139.6556 C78.8142,139.6556 78.1822,139.4636 77.5942,139.0846 C77.0042,138.7146 76.5382,138.2056 76.1942,137.5596 C75.8482,136.9116 75.6772,136.2136 75.6772,135.4616 C75.6772,134.7086 75.8482,134.0036 76.1912,133.3496 C76.5262,132.6896 76.9852,132.1666 77.5592,131.7786 C78.1352,131.3896 78.7552,131.1966 79.4222,131.1966 Z" id="Fill-41" fill="#58585B"></path>
		<polygon id="Fill-43" fill="#58585B" points="85.5459 138.0804 89.7499 131.3714 90.7499 131.3714 90.7499 139.4724 89.7499 139.4724 89.7499 132.7544 85.5459 139.4724 84.5669 139.4724 84.5669 131.3714 85.5459 131.3714"></polygon>
		<polygon id="Fill-45" fill="#58585B" points="93.3682 139.472 93.3682 132.368 91.6512 132.368 91.6512 131.387 96.0652 131.387 96.0652 132.368 94.3542 132.368 94.3542 139.472"></polygon>
		<path d="M97.6846,134.7484 L103.2396,134.7484 C103.1646,134.2864 102.9966,133.8624 102.7256,133.4784 C102.4616,133.0924 102.1296,132.7904 101.7306,132.5684 C101.3306,132.3494 100.9136,132.2394 100.4756,132.2394 C100.0276,132.2394 99.6126,132.3424 99.2276,132.5454 C98.8416,132.7514 98.5146,133.0474 98.2456,133.4334 C97.9756,133.8124 97.7896,134.2514 97.6846,134.7484 M104.2436,135.7464 L97.6506,135.7464 C97.7006,136.1804 97.7786,136.5224 97.8826,136.7714 C98.0246,137.1264 98.2306,137.4474 98.4976,137.7294 C98.7676,138.0094 99.0756,138.2254 99.4226,138.3814 C99.7686,138.5344 100.1286,138.6144 100.5016,138.6144 C101.2946,138.6144 101.9786,138.3114 102.5486,137.7064 C102.7616,137.4754 102.9446,137.1844 103.0956,136.8404 L104.1346,136.8404 C103.9526,137.3074 103.7886,137.6564 103.6416,137.8894 C103.4976,138.1224 103.2916,138.3654 103.0266,138.6144 C102.6846,138.9414 102.2886,139.1994 101.8366,139.3804 C101.3856,139.5634 100.9306,139.6554 100.4756,139.6554 C99.7876,139.6554 99.1536,139.4694 98.5736,139.0964 C97.9946,138.7244 97.5356,138.2114 97.1966,137.5634 C96.8556,136.9134 96.6856,136.2034 96.6856,135.4334 C96.6856,134.6664 96.8536,133.9584 97.1926,133.3114 C97.5306,132.6624 97.9896,132.1464 98.5696,131.7674 C99.1516,131.3864 99.7816,131.1964 100.4616,131.1964 C101.0366,131.1964 101.5826,131.3314 102.0946,131.6074 C102.6106,131.8804 103.0526,132.2674 103.4146,132.7694 C103.7626,133.2474 104.0026,133.7924 104.1346,134.4064 C104.1796,134.6354 104.2176,135.0794 104.2436,135.7464" id="Fill-47" fill="#58585B"></path>
		<polygon id="Fill-49" fill="#58585B" points="108.4131 131.2249 111.1131 139.4719 110.0691 139.4719 107.8921 132.8309 105.7371 139.4719 104.6651 139.4719 107.3801 131.2249"></polygon>
		<path d="M112.7285,135.4017 L112.7285,138.4907 L113.6115,138.4907 L113.8495,138.4907 C114.0645,138.4817 114.2745,138.4767 114.4805,138.4767 C114.6715,138.4547 114.8415,138.4177 114.9875,138.3617 C115.2475,138.2647 115.4485,138.0957 115.5855,137.8527 C115.7255,137.6097 115.7935,137.3077 115.7935,136.9467 C115.7935,136.5047 115.6995,136.1587 115.5075,135.9037 C115.3885,135.7427 115.2145,135.6127 114.9875,135.5167 C114.7815,135.4417 114.4045,135.4017 113.8495,135.4017 L113.6115,135.4017 L112.7285,135.4017 Z M111.7415,139.4717 L111.7415,131.3867 L112.7285,131.3717 L112.7285,134.4207 L113.9195,134.4207 C114.7075,134.4207 115.2785,134.5107 115.6305,134.6867 C115.8675,134.7977 116.0755,134.9657 116.2535,135.1897 C116.4325,135.4067 116.5655,135.6647 116.6585,135.9657 C116.7495,136.2647 116.7945,136.5927 116.7945,136.9467 C116.7945,137.7137 116.5985,138.3147 116.2075,138.7567 C115.9665,139.0197 115.6805,139.2067 115.3435,139.3127 C115.0055,139.4187 114.5315,139.4717 113.9195,139.4717 L111.7415,139.4717 Z" id="Fill-51" fill="#58585B"></path>
		<path d="M124.001,137.098 L125.097,137.098 C124.919,137.475 124.768,137.756 124.649,137.948 C124.528,138.137 124.377,138.323 124.199,138.505 C123.464,139.273 122.578,139.655 121.535,139.655 C120.807,139.655 120.137,139.469 119.53,139.1 C118.924,138.724 118.444,138.215 118.092,137.572 C117.742,136.922 117.566,136.208 117.566,135.433 C117.566,134.663 117.742,133.952 118.092,133.304 C118.444,132.655 118.924,132.143 119.53,131.767 C120.137,131.387 120.797,131.197 121.51,131.197 C122.623,131.197 123.568,131.638 124.351,132.52 C124.625,132.835 124.877,133.27 125.11,133.829 L124.001,133.829 C123.787,133.483 123.572,133.21 123.357,133.008 C122.815,132.494 122.193,132.24 121.496,132.24 C120.957,132.24 120.461,132.381 120.009,132.663 C119.559,132.944 119.201,133.327 118.941,133.812 C118.682,134.3 118.553,134.83 118.553,135.402 C118.553,136 118.681,136.546 118.936,137.038 C119.191,137.525 119.545,137.909 119.998,138.195 C120.443,138.473 120.938,138.614 121.482,138.614 C121.969,138.614 122.424,138.498 122.838,138.27 C123.07,138.139 123.266,137.993 123.428,137.836 C123.586,137.675 123.777,137.429 124.001,137.098" id="Fill-53" fill="#58585B"></path>
		<polygon id="Fill-55" fill="#58585B" points="127.4199 139.472 127.4199 132.368 125.7019 132.368 125.7019 131.387 130.1179 131.387 130.1179 132.368 128.4059 132.368 128.4059 139.472"></polygon>
		<path d="M131.9854,138.491 L133.2794,138.491 C133.8634,138.491 134.2684,138.421 134.4984,138.287 C134.8984,138.042 135.0994,137.66 135.0994,137.136 C135.0994,136.844 135.0314,136.586 134.8934,136.369 C134.7584,136.152 134.5684,135.997 134.3234,135.908 C134.0794,135.819 133.6984,135.774 133.1824,135.774 L131.9854,135.774 L131.9854,138.491 Z M131.9854,134.81 L133.1974,134.81 C133.7084,134.81 134.0654,134.743 134.2714,134.612 C134.5954,134.414 134.7584,134.072 134.7584,133.584 C134.7584,133.129 134.5954,132.788 134.2714,132.565 C134.1854,132.505 134.0824,132.459 133.9634,132.429 C133.7954,132.387 133.5534,132.367 133.2394,132.367 L131.9854,132.367 L131.9854,134.81 Z M131.0214,139.472 L131.0214,131.387 L133.2524,131.387 C133.6544,131.387 133.9784,131.418 134.2324,131.478 C134.4814,131.538 134.7054,131.642 134.9024,131.79 C135.1724,131.976 135.3814,132.226 135.5324,132.535 C135.6814,132.845 135.7574,133.176 135.7574,133.531 C135.7574,133.902 135.6764,134.235 135.5104,134.529 C135.3474,134.817 135.1254,135.024 134.8474,135.153 C135.2314,135.249 135.5474,135.485 135.7954,135.859 C136.0454,136.235 136.1694,136.671 136.1694,137.168 C136.1694,137.549 136.0894,137.903 135.9354,138.232 C135.7714,138.563 135.5504,138.827 135.2734,139.03 C135.0354,139.204 134.7754,139.319 134.4984,139.381 C134.2234,139.441 133.8124,139.472 133.2634,139.472 L131.0214,139.472 Z" id="Fill-57" fill="#58585B"></path>
		<path d="M140.9902,132.2396 C140.4572,132.2576 139.9742,132.4136 139.5462,132.7036 C139.1132,132.9866 138.7742,133.3716 138.5302,133.8586 C138.2852,134.3456 138.1642,134.8796 138.1642,135.4616 C138.1642,136.0366 138.2912,136.5646 138.5402,137.0466 C138.7962,137.5316 139.1422,137.9156 139.5782,138.1956 C140.0132,138.4726 140.4882,138.6146 141.0062,138.6146 C141.5212,138.6146 141.9942,138.4716 142.4222,138.1866 C142.8462,137.8956 143.1802,137.5036 143.4262,137.0066 C143.6702,136.5106 143.7912,135.9606 143.7912,135.3566 C143.7912,134.8096 143.6682,134.2946 143.4182,133.8126 C143.1692,133.3316 142.8332,132.9476 142.4092,132.6636 C141.9832,132.3806 141.5292,132.2396 141.0462,132.2396 L140.9902,132.2396 Z M140.9232,131.1966 C141.6162,131.1966 142.2582,131.3866 142.8492,131.7666 C143.4412,132.1466 143.9092,132.6596 144.2562,133.3066 C144.6022,133.9516 144.7782,134.6526 144.7782,135.4016 C144.7782,136.1636 144.6052,136.8716 144.2642,137.5256 C143.9202,138.1806 143.4622,138.6976 142.8802,139.0816 C142.3012,139.4636 141.6712,139.6556 140.9902,139.6556 C140.3162,139.6556 139.6832,139.4636 139.0952,139.0846 C138.5072,138.7146 138.0392,138.2056 137.6952,137.5596 C137.3492,136.9116 137.1772,136.2136 137.1772,135.4616 C137.1772,134.7086 137.3492,134.0036 137.6912,133.3496 C138.0272,132.6896 138.4862,132.1666 139.0602,131.7786 C139.6362,131.3896 140.2562,131.1966 140.9232,131.1966 Z" id="Fill-59" fill="#58585B"></path>
		<path d="M156.7559,132.2396 C156.2219,132.2576 155.7389,132.4136 155.3109,132.7036 C154.8779,132.9866 154.5389,133.3716 154.2959,133.8586 C154.0499,134.3456 153.9289,134.8796 153.9289,135.4616 C153.9289,136.0366 154.0549,136.5646 154.3049,137.0466 C154.5609,137.5316 154.9059,137.9156 155.3419,138.1956 C155.7769,138.4726 156.2529,138.6146 156.7699,138.6146 C157.2849,138.6146 157.7579,138.4716 158.1879,138.1866 C158.6109,137.8956 158.9469,137.5036 159.1899,137.0066 C159.4339,136.5106 159.5569,135.9606 159.5569,135.3566 C159.5569,134.8096 159.4319,134.2946 159.1829,133.8126 C158.9359,133.3316 158.5979,132.9476 158.1739,132.6636 C157.7479,132.3806 157.2939,132.2396 156.8119,132.2396 L156.7559,132.2396 Z M156.6879,131.1966 C157.3809,131.1966 158.0239,131.3866 158.6139,131.7666 C159.2059,132.1466 159.6739,132.6596 160.0219,133.3066 C160.3669,133.9516 160.5429,134.6526 160.5429,135.4016 C160.5429,136.1636 160.3699,136.8716 160.0289,137.5256 C159.6859,138.1806 159.2269,138.6976 158.6459,139.0816 C158.0659,139.4636 157.4359,139.6556 156.7559,139.6556 C156.0799,139.6556 155.4479,139.4636 154.8599,139.0846 C154.2719,138.7146 153.8039,138.2056 153.4589,137.5596 C153.1129,136.9116 152.9429,136.2136 152.9429,135.4616 C152.9429,134.7086 153.1129,134.0036 153.4569,133.3496 C153.7919,132.6896 154.2509,132.1666 154.8239,131.7786 C155.4019,131.3896 156.0199,131.1966 156.6879,131.1966 Z" id="Fill-61" fill="#58585B"></path>
		<polygon id="Fill-63" fill="#58585B" points="162.8955 139.472 162.8955 132.368 161.1755 132.368 161.1755 131.387 165.5925 131.387 165.5925 132.368 163.8815 132.368 163.8815 139.472"></polygon>
		<path d="M171.3604,138.491 L169.4924,133.022 L169.4644,132.755 L169.4364,133.022 L167.5744,138.491 L171.3604,138.491 Z M172.2304,139.472 L166.7194,139.472 L166.7194,141.345 L165.8364,141.345 L165.8364,138.491 L166.5414,138.491 L169.0604,131.387 L169.8764,131.387 L172.4014,138.491 L173.1274,138.491 L173.1274,141.345 L172.2304,141.345 L172.2304,139.472 Z" id="Fill-65" fill="#58585B"></path>
		<path d="M174.7393,134.7484 L180.2953,134.7484 C180.2193,134.2864 180.0503,133.8624 179.7813,133.4784 C179.5153,133.0924 179.1833,132.7904 178.7853,132.5684 C178.3853,132.3494 177.9683,132.2394 177.5313,132.2394 C177.0823,132.2394 176.6663,132.3424 176.2823,132.5454 C175.8963,132.7514 175.5683,133.0474 175.2993,133.4334 C175.0313,133.8124 174.8433,134.2514 174.7393,134.7484 M181.2993,135.7464 L174.7063,135.7464 C174.7543,136.1804 174.8343,136.5224 174.9373,136.7714 C175.0783,137.1264 175.2853,137.4474 175.5523,137.7294 C175.8233,138.0094 176.1313,138.2254 176.4763,138.3814 C176.8243,138.5344 177.1833,138.6144 177.5573,138.6144 C178.3503,138.6144 179.0323,138.3114 179.6023,137.7064 C179.8153,137.4754 179.9983,137.1844 180.1503,136.8404 L181.1903,136.8404 C181.0063,137.3074 180.8433,137.6564 180.6973,137.8894 C180.5513,138.1224 180.3453,138.3654 180.0823,138.6144 C179.7393,138.9414 179.3433,139.1994 178.8903,139.3804 C178.4403,139.5634 177.9843,139.6554 177.5313,139.6554 C176.8433,139.6554 176.2073,139.4694 175.6293,139.0964 C175.0493,138.7244 174.5903,138.2114 174.2503,137.5634 C173.9113,136.9134 173.7403,136.2034 173.7403,135.4334 C173.7403,134.6664 173.9103,133.9584 174.2473,133.3114 C174.5843,132.6624 175.0433,132.1464 175.6253,131.7674 C176.2053,131.3864 176.8383,131.1964 177.5153,131.1964 C178.0903,131.1964 178.6363,131.3314 179.1503,131.6074 C179.6663,131.8804 180.1063,132.2674 180.4703,132.7694 C180.8163,133.2474 181.0573,133.7924 181.1903,134.4064 C181.2343,134.6354 181.2713,135.0794 181.2993,135.7464" id="Fill-67" fill="#58585B"></path>
		<polygon id="Fill-69" fill="#58585B" points="185.4668 131.2249 188.1688 139.4719 187.1228 139.4719 184.9478 132.8309 182.7928 139.4719 181.7188 139.4719 184.4358 131.2249"></polygon>
		<path d="M190.0078,135.2821 L193.2188,131.3711 L194.3828,131.3711 L191.1718,135.2511 L194.5958,139.4721 L193.3828,139.4721 L190.0078,135.2821 Z M188.8988,139.4721 L189.8788,139.4721 L189.8788,131.3711 L188.8988,131.3711 L188.8988,139.4721 Z" id="Fill-71" fill="#58585B"></path>
		<path d="M199.083,132.2396 C198.535,132.2396 198.032,132.3806 197.576,132.6686 C197.119,132.9546 196.762,133.3436 196.501,133.8356 C196.242,134.3276 196.111,134.8666 196.111,135.4486 C196.111,136.0156 196.245,136.5426 196.51,137.0266 C196.773,137.5106 197.131,137.8956 197.58,138.1836 C198.029,138.4696 198.516,138.6146 199.041,138.6146 C199.544,138.6146 200.014,138.4696 200.448,138.1836 C200.884,137.8956 201.231,137.5106 201.486,137.0266 C201.742,136.5426 201.868,136.0156 201.868,135.4486 C201.868,134.8796 201.744,134.3476 201.492,133.8526 C201.241,133.3536 200.902,132.9606 200.473,132.6716 C200.043,132.3826 199.58,132.2396 199.083,132.2396 Z M202.828,131.3716 L202.828,139.4636 L201.868,139.4636 L201.868,137.9426 C201.691,138.2836 201.49,138.5696 201.266,138.8036 C200.67,139.3706 199.932,139.6556 199.055,139.6556 C198.471,139.6556 197.879,139.4936 197.275,139.1716 C196.674,138.8486 196.195,138.4396 195.846,137.9426 C195.627,137.6236 195.451,137.2376 195.32,136.7816 C195.191,136.3296 195.126,135.8736 195.126,135.4186 C195.126,134.6566 195.301,133.9516 195.649,133.3036 C195.999,132.6556 196.477,132.1426 197.078,131.7666 C197.675,131.3866 198.325,131.1966 199.028,131.1966 C199.466,131.1966 199.881,131.2716 200.271,131.4246 C200.661,131.5756 200.997,131.7976 201.279,132.0866 C201.499,132.2996 201.695,132.5746 201.868,132.9156 L201.868,131.3636 L202.828,131.3716 Z" id="Fill-73" fill="#58585B"></path>
	</g>
</svg>